PathFileType	4	(X/Y/Z)	C:/Users/beibeiliu/ov580/test_trc/User2\sequence.15_training_dense_right.trc
DataRate	CameraRate	NumFrames	NumMarkers	Units	OrigDataRate	OrigDataStartFrame	OrigNumFrames
120	120	20	19	mm	120	171	273
Frame#	Time	ThumbCMC			ThumbMCP			ThumbIP			ThumbTip			IndexMCP			IndexPIP			IndexTip			MiddleMCP			MiddlePIP			MiddleTip			RingMCP			RingPIP			RingTip			PinkyMCP			PinkyPIP			PinkyTip			BackHand1			BackHand2			BackHand3	
		X0	Y0	Z0	X1	Y1	Z1	X2	Y2	Z2	X3	Y3	Z3	X4	Y4	Z4	X5	Y5	Z5	X6	Y6	Z6	X7	Y7	Z7	X8	Y8	Z8	X9	Y9	Z9	X10	Y10	Z10	X11	Y11	Z11	X12	Y12	Z12	X13	Y13	Z13	X14	Y14	Z14	X15	Y15	Z15	X16	Y16	Z16	X17	Y17	Z17	X18	Y18	Z18	
170	1.41667	5.67042	-0.248666	45.2241	-21.84	-10.6469	26.7477	-40.4671	-18.2968	-4.59445	-48.4	-28.2218	-20.7873	-14.1424	-3.57246	-28.6672	-22.8694	-34.7854	-29.3159	-7.97308	-46.8335	6.30799	5.1423	-16.3438	-39.5634	-5.04587	-48.9664	-23.0622	13.2408	-36.1265	10.2113	19.9691	-24.2666	-44.1991	10.5153	-52.0028	-36.9625	23.2247	-43.5919	-0.352464	45.5388	-18.7091	-43.3987	30.0804	-26.1973	-65.7763	18.391	-31.3488	-88.4307	57.7769	6.06736	-1.8901	70.9674	10.1047	31.1164	37.1446	20.0958	29.2989	
171	1.425	6.69269	-1.11226	37.8475	-11.8764	-13.0122	16.887	-26.4045	-22.5606	-16.1166	-37.2755	-32.2383	-34.7155	-3.845	-8.98003	-39.2569	-10.2428	-41.6048	-37.408	-0.0346176	-50.1007	-2.6847	15.7472	-22.9347	-47.4196	10.4321	-53.9161	-30.6387	21.911	-37.9381	5.23972	37.6597	-29.5279	-49.853	22.1463	-56.5512	-38.7602	33.3596	-45.9861	-3.883	58.7346	-21.5163	-48.1414	49.1948	-29.6223	-66.8712	35.5082	-36.0273	-92.8337	65.0591	4.92948	-1.95518	76.823	7.59519	27.2683	39.0289	21.5413	24.6273	
172	1.43333	13.2476	-3.07241	31.1563	-7.00163	-15.107	8.64181	-23.2478	-25.2949	-24.0004	-28.4576	-34.8631	-45.6347	4.77867	-10.5521	-44.4058	-3.87495	-45.035	-41.0977	6.4663	-52.7328	-5.77966	23.6076	-23.9203	-51.2231	14.6042	-55.0544	-33.6039	27.9098	-39.8163	-0.904937	44.6712	-33.4779	-54.2133	34.4848	-60.066	-46.0292	35.708	-48.0561	-9.81172	73.9725	-25.6277	-46.4586	63.0947	-33.4859	-72.6319	48.6211	-39.9803	-94.3892	71.9836	2.92361	-5.64124	79.8714	7.37535	26.0422	47.5592	18.9661	18.7231	
173	1.44167	16.8274	-3.73577	30.9982	-3.09842	-16.1497	7.13101	-20.3274	-25.621	-25.1414	-27.3348	-36.5976	-47.7232	6.19206	-14.0035	-47.6461	1.56431	-45.6411	-45.0661	12.3239	-54.3032	-9.97477	29.935	-26.0386	-53.6075	18.0528	-56.2063	-37.6229	28.9406	-38.7373	-1.88762	49.1165	-32.7491	-54.8639	34.8152	-59.1492	-46.7196	39.7896	-48.1818	-10.5992	77.0071	-26.5001	-46.9689	65.9857	-32.6772	-70.4235	56.2786	-38.3026	-95.6198	74.1274	1.34035	-3.9087	84.4379	8.06862	27.0085	44.7875	19.8294	17.0677	
174	1.45	14.0466	-2.9013	35.7475	-6.52691	-14.8119	8.10282	-22.138	-24.9874	-17.4988	-33.3299	-35.2036	-41.2281	1.97843	-12.0953	-44.6528	-5.07309	-43.174	-41.547	7.70536	-52.6535	-6.31253	26.2255	-22.9777	-51	15.5627	-53.9471	-38.9534	22.3586	-40.4467	0.274121	44.291	-30.6454	-54.4307	30.6128	-60.0795	-42.854	38.2535	-49.5442	-9.23216	69.7264	-24.3039	-47.9091	60.754	-31.9801	-71.1341	48.1361	-38.336	-95.5834	71.965	4.76083	-5.30969	84.5491	6.28941	26.8218	45.3747	18.7352	20.0976	
175	1.45833	9.58827	-2.28987	40.804	-13.6526	-13.0961	16.6441	-33.2662	-20.9533	-10.6415	-39.3044	-31.4244	-30.0039	-7.3215	-7.60327	-36.1467	-15.5834	-40.2159	-35.5867	-3.49734	-49.2143	-0.181427	11.0582	-18.2506	-44.89	2.76507	-53.0034	-29.9381	19.4308	-42.0941	2.45263	30.5352	-28.8639	-51.8998	18.3528	-55.4662	-40.7428	26.6825	-48.4569	-9.35208	56.4043	-20.5863	-49.9306	43.1396	-27.1466	-70.1853	35.5706	-31.9842	-92.172	66.8397	5.51031	-2.69479	75.8132	7.45311	28.8704	40.3746	21.4942	21.8261	
176	1.46667	5.07399	-1.87926	49.1549	-20.6272	-10.3358	27.2427	-43.9371	-17.2018	-0.218201	-50.2402	-26.4633	-21.257	-19.3373	-5.86538	-28.6676	-30.2619	-36.3027	-25.7849	-15.7939	-47.1401	4.19907	-2.52044	-17.7168	-39.3893	-9.34483	-49.4378	-24.7413	9.95388	-40.2066	9.12265	12.4117	-23.7467	-46.023	3.02119	-49.5897	-38.5548	18.2076	-44.83	-2.14119	41.6174	-16.5918	-44.0235	31.4608	-24.3345	-65.4959	18.2413	-28.1229	-85.5947	53.1361	6.10724	-3.19885	70.224	9.45046	30.41	31.5605	20.0775	28.3345	
177	1.475	-1.38955	-1.12271	58.0364	-29.3773	-9.99413	37.7509	-48.0013	-15.0154	7.60752	-65.612	-23.5685	-9.63774	-33.9299	-0.892838	-18.216	-37.2346	-34.3771	-18.5978	-22.3539	-44.3451	10.1168	-11.1879	-11.2728	-31.1436	-21.328	-46.0437	-17.1744	0.673009	-37.1385	17.1647	6.42205	-20.9003	-41.4442	-5.26689	-48.9677	-33.3341	8.02684	-43.2905	1.71	31.938	-15.4236	-39.74	14.628	-19.1178	-56.7524	-3.29337	-23.1034	-78.1932	45.9567	10.1033	5.60742	64.9366	11.1471	32.5051	25.2007	23.8992	36.3151	
178	1.48333	-1.98362	-0.516012	60.3035	-32.6869	-8.33029	37.8807	-56.743	-14.1049	13.9547	-69.2517	-21.2575	-6.36599	-35.883	3.12545	-12.645	-43.4945	-30.2495	-16.9928	-25.7073	-43.0281	14.1473	-17.0721	-8.89081	-27.0933	-25.6347	-42.7647	-18.4723	-3.30807	-35.0056	18.8635	-2.77174	-18.1887	-37.9075	-8.04329	-46.9915	-31.3404	5.31438	-42.5696	2.44565	24.2297	-11.4164	-34.1991	7.77387	-16.8741	-53.8507	-5.11294	-19.3737	-74.0659	39.7073	10.7712	6.7214	60.3165	12.9359	32.2142	22.4967	22.5108	36.4567	
179	1.49167	-4.49396	1.70851	55.9513	-29.1795	-8.3226	36.4473	-49.3782	-15.3699	12.1523	-62.0929	-22.4461	-10.6776	-32.2084	-0.545392	-20.9882	-41.8704	-30.6903	-17.5448	-21.9057	-42.9051	6.81244	-13.0511	-7.47565	-30.5026	-18.5465	-42.9221	-23.3864	-0.294143	-36.9282	13.4567	5.16218	-18.1485	-40.9572	-7.40351	-45.4004	-30.1577	7.82677	-38.8907	3.01659	24.4373	-11.022	-38.2538	11.5511	-16.8573	-55.1332	-2.20031	-19.6724	-77.8535	44.3136	11.2773	5.67103	62.4103	12.4492	34.2678	22.8942	25.1366	36.5707	
180	1.5	0.828054	1.90353	49.5098	-25.7264	-8.49167	30.7044	-43.0199	-15.2802	-1.02507	-57.3462	-24.1389	-21.3652	-19.7087	1.65897	-26.5146	-27.7085	-33.0835	-27.6995	-16.1309	-43.5503	4.21032	-3.32582	-10.9027	-37.947	-10.5702	-42.8642	-26.8743	7.06943	-34.4503	9.0318	13.0788	-16.5914	-43.3673	5.32595	-48.2512	-34.2154	14.8056	-40.693	-2.71234	39.4104	-11.7094	-39.3838	25.1017	-18.3185	-62.4581	13.3733	-23.8438	-83.8595	51.6085	12.8139	-1.57742	68.0902	15.5743	33.8936	28.494	26.8933	31.6494	
181	1.50833	4.45898	2.8895	39.08	-18.8726	-7.67144	16.5669	-33.9201	-16.7048	-10.9026	-41.9104	-25.3873	-34.5667	-9.83995	0.519204	-36.6148	-15.6048	-33.6837	-36.4013	-4.66854	-42.6177	-6.16811	13.3605	-10.0226	-46.1248	4.1772	-44.0413	-35.4072	13.3456	-32.3535	3.34224	32.6632	-18.536	-51.6699	20.6671	-48.3768	-42.895	22.8716	-38.4545	-8.72994	53.8882	-12.631	-48.0731	39.8429	-19.8683	-69.0776	31.1037	-22.3213	-88.1267	58.4689	14.4419	0.0523004	71.0464	17.0934	29.3783	35.3806	24.834	25.1131	
182	1.51667	9.23585	5.90295	32.7861	-9.63054	-6.20239	9.89004	-25.3461	-13.3687	-26.949	-31.9963	-22.7442	-48.2614	0.668443	0.622494	-47.5978	-2.9777	-31.5247	-46.4793	6.9531	-41.1837	-15.515	24.3998	-6.89525	-52.2162	17.1705	-41.6086	-45.294	21.3231	-30.4312	-2.92389	42.4161	-14.4969	-55.9424	30.9232	-46.8651	-49.8274	37.1173	-38.2543	-14.3407	66.0644	-9.88952	-52.8515	53.7501	-17.3105	-74.2597	46.534	-19.2869	-94.0817	68.7357	16.415	-8.05424	81.595	15.253	27.3809	42.098	29.9514	19.1824	
183	1.525	16.6803	7.30669	28.8803	-5.31904	-3.03795	2.96508	-20.744	-9.86083	-28.1288	-27.5917	-18.7614	-51.7781	11.0316	6.92029	-48.7607	-0.964675	-25.9233	-49.6315	6.37739	-38.8535	-18.3157	32.46	-5.80311	-56.0493	20.9534	-39.9745	-46.1705	29.5929	-28.549	-7.50262	47.4201	-15.8174	-62.1835	34.3693	-43.366	-51.4135	38.1273	-35.3505	-17.8488	75.1961	-9.76454	-52.1184	63.8469	-14.9066	-77.359	51.3224	-16.8235	-101.178	75.2797	17.1823	-8.53167	85.3803	16.3151	26.7661	45.9819	30.9608	15.7836	
184	1.53333	14.1193	11.2054	28.7166	-4.19204	2.228	2.95526	-20.6278	-4.30403	-28.0732	-25.6034	-12.0662	-50.0029	5.03605	9.32793	-47.4433	-2.5908	-23.9785	-47.5364	7.22632	-35.9396	-17.3571	28.1777	-3.26411	-56.3985	19.4218	-34.7544	-48.3137	27.072	-26.9301	-5.54684	45.1918	-10.1485	-58.8167	29.3936	-37.5625	-53.0183	37.9225	-33.1396	-17.5109	69.9455	-5.93306	-50.5787	63.828	-11.838	-78.4748	53.7086	-14.8589	-100.318	72.8218	17.2364	-6.63111	81.8156	18.7778	24.7851	47.1968	30.6509	17.7431	
185	1.54167	13.7738	10.5031	35.6579	-11.4285	3.84831	12.4484	-23.3616	-1.227	-19.9506	-32.9933	-7.61762	-44.3189	-1.31645	10.9929	-43.3105	-10.5997	-18.4356	-44.5212	3.52991	-33.0102	-9.87166	16.2704	0.2415	-52.5578	10.818	-33.3179	-41.3824	20.8196	-27.7697	-5.50801	36.0116	-10.0455	-58.9748	25.461	-35.286	-54.1527	28.7926	-31.1827	-15.8218	62.4028	-3.30259	-48.2963	51.4104	-7.41233	-76.6167	43.2895	-11.1931	-96.9189	67.8575	18.6678	-7.24573	81.7214	15.5927	29.086	44.3508	32.1096	23.3301	
186	1.55	9.60626	8.78162	41.5109	-16.2548	3.11035	16.4568	-29.8513	-0.825869	-16.5554	-41.6987	-6.96546	-37.6482	-7.97363	13.2399	-35.5955	-18.2608	-20.0033	-36.9865	-4.2836	-33.515	-6.93418	10.8645	2.36177	-46.5998	-0.24892	-31.7582	-40.6199	14.6726	-28.117	1.03275	29.9873	-9.54448	-56.1828	17.7449	-35.3781	-49.5197	22.9164	-32.4245	-13.1558	57.118	-4.09633	-51.0477	40.526	-7.22805	-71.2507	30.9544	-7.71761	-92.0232	62.8536	17.4177	-1.97928	78.3147	16.1111	28.7885	38.4424	32.5569	22.0446	
187	1.55833	6.33832	5.57595	44.3211	-17.2328	-1.08553	17.5401	-37.0616	-6.73322	-10.1211	-49.6721	-12.4899	-31.6726	-9.32617	8.05888	-34.7231	-24.1983	-26.4014	-33.3988	-8.61039	-39.4162	-5.34754	7.24202	-3.8063	-44.2331	-5.30557	-37.7256	-32.514	11.1701	-31.7277	3.24849	23.0524	-14.0574	-53.1243	9.8392	-38.7683	-46.2494	19.8112	-35.5718	-8.18786	50.9473	-9.78295	-50.441	38.0711	-14.6041	-72.9676	25.9315	-14.2384	-93.9279	62.6536	13.0998	-1.61594	72.7476	13.6201	27.829	34.7701	28.0184	23.5925	
188	1.56667	4.94059	1.2512	44.6922	-23.236	-7.45883	22.3769	-38.6619	-14.2154	-10.6482	-52.5257	-22.5353	-28.6317	-15.4839	-1.76781	-34.399	-23.6986	-35.0499	-31.4794	-11.0707	-46.796	-2.35067	2.22811	-14.806	-44.32	-3.13845	-47.5578	-33.8363	9.60147	-37.7401	7.1174	20.5663	-22.9916	-48.9121	9.47225	-51.1582	-41.9518	19.2326	-44.736	-4.86984	46.3671	-18.325	-43.6807	32.7	-24.4632	-68.5949	20.6229	-27.1178	-90.8458	59.2436	5.31766	0.514883	69.0404	10.5507	27.4414	37.3336	22.4356	25.5	
189	1.575	-1.71835	-2.01341	43.406	-25.0735	-14.8211	21.1709	-43.9888	-26.6415	-8.36249	-53.081	-37.4785	-26.0816	-16.2681	-12.7452	-30.7472	-28.0795	-47.0366	-26.5713	-17.1232	-55.2872	3.62685	0.406602	-27.8826	-41.4508	-8.98094	-59.649	-22.2237	4.92484	-47.3942	11.7407	17.1901	-38.7845	-46.6613	5.81302	-62.5991	-33.2795	18.531	-54.4083	-0.515664	48.3554	-32.1914	-40.9364	29.282	-40.1596	-64.7335	19.6033	-47.0788	-83.4332	57.2447	-0.943455	-1.4441	67.0155	6.37329	28.9633	29.6565	17.478	23.852	
